<svg width="151" height="41" viewBox="0 0 151 41" fill="none" xmlns="http://www.w3.org/2000/svg">
<g clip-path="url(#clip0_728_6377)">
<path d="M151 31.6004V38.9096C151 39.0462 150.89 39.1692 150.74 39.1692C150.589 39.1692 150.48 39.0599 150.48 38.9096V38.1036C150.124 38.7457 149.385 39.1692 148.495 39.1692C147.126 39.1692 146.059 38.0626 146.059 36.6144C146.059 35.1662 147.113 34.0596 148.495 34.0596C149.371 34.0596 150.11 34.4831 150.48 35.1116V31.6004C150.48 31.4638 150.589 31.3408 150.74 31.3408C150.89 31.3408 151 31.4501 151 31.6004ZM150.48 36.6281C150.48 35.3848 149.713 34.5514 148.55 34.5514C147.386 34.5514 146.592 35.4395 146.592 36.6281C146.592 37.8167 147.441 38.7047 148.55 38.7047C149.658 38.7047 150.48 37.8713 150.48 36.6281Z" fill="black"/>
<path d="M144.921 36.2865V36.4095C144.921 36.628 144.826 36.7373 144.607 36.7373H140.774C140.829 37.8713 141.664 38.691 142.8 38.691C143.375 38.691 143.922 38.4588 144.292 38.0626C144.36 37.9943 144.415 37.9669 144.483 37.9669C144.62 37.9669 144.702 38.0626 144.702 38.1992C144.702 38.2812 144.675 38.3358 144.579 38.4314C144.086 38.9233 143.484 39.1692 142.786 39.1692C141.335 39.1692 140.227 38.0489 140.227 36.6144C140.227 35.1799 141.322 34.0596 142.69 34.0596C143.977 34.0596 144.908 34.9886 144.908 36.2865H144.921ZM140.788 36.2728H144.401C144.401 35.2618 143.717 34.5241 142.704 34.5241C141.691 34.5241 140.938 35.2618 140.788 36.2728Z" fill="black"/>
<path d="M138.792 35.9723V38.9233C138.792 39.0599 138.682 39.1829 138.531 39.1829C138.381 39.1829 138.271 39.0736 138.271 38.9233V36.0133C138.271 35.1252 137.724 34.5514 136.903 34.5514C136.081 34.5514 135.438 35.1662 135.438 36.0133V38.9233C135.438 39.0599 135.329 39.1829 135.178 39.1829C135.027 39.1829 134.918 39.0736 134.918 38.9233V34.3192C134.918 34.1825 135.027 34.0596 135.178 34.0596C135.329 34.0596 135.438 34.1689 135.438 34.3192V34.7973C135.78 34.3465 136.314 34.0596 136.985 34.0596C138.08 34.0596 138.792 34.7973 138.792 35.9723Z" fill="black"/>
<path d="M133.22 32.2702C133.22 32.5161 133.028 32.7074 132.782 32.7074C132.535 32.7074 132.344 32.5161 132.344 32.2702C132.344 32.0243 132.535 31.833 132.782 31.833C133.028 31.833 133.22 32.0243 133.22 32.2702ZM132.535 38.9236V34.3195C132.535 34.1829 132.631 34.0599 132.795 34.0599C132.932 34.0599 133.055 34.1692 133.055 34.3195V38.9236C133.055 39.0603 132.946 39.1832 132.795 39.1832C132.659 39.1832 132.549 39.0739 132.549 38.9236H132.535Z" fill="black"/>
<path d="M131.687 31.6414C131.687 31.7644 131.591 31.8463 131.454 31.8463C131.386 31.8463 131.276 31.8327 131.085 31.8327C130.428 31.8327 130.072 32.1742 130.072 32.8573V34.1826H131.194C131.331 34.1826 131.427 34.2782 131.427 34.4148C131.427 34.5514 131.331 34.6471 131.194 34.6471H130.072V38.937C130.072 39.0736 129.962 39.1966 129.812 39.1966C129.661 39.1966 129.552 39.0873 129.552 38.937V34.6471H129.018C128.881 34.6471 128.785 34.5514 128.785 34.4148C128.785 34.2782 128.881 34.1826 129.018 34.1826H129.552V32.8437C129.552 31.9147 130.085 31.3682 131.016 31.3682C131.194 31.3682 131.345 31.3682 131.454 31.4092C131.591 31.4365 131.673 31.5184 131.673 31.6551L131.687 31.6414Z" fill="black"/>
<path d="M127.976 36.2865V36.4095C127.976 36.628 127.88 36.7373 127.661 36.7373H123.829C123.884 37.8713 124.718 38.691 125.854 38.691C126.429 38.691 126.977 38.4588 127.346 38.0626C127.415 37.9943 127.47 37.9669 127.538 37.9669C127.675 37.9669 127.757 38.0626 127.757 38.1992C127.757 38.2812 127.73 38.3358 127.634 38.4314C127.141 38.9233 126.539 39.1692 125.841 39.1692C124.39 39.1692 123.281 38.0489 123.281 36.6144C123.281 35.1799 124.376 34.0596 125.745 34.0596C127.032 34.0596 127.962 34.9886 127.962 36.2865H127.976ZM123.842 36.2728H127.456C127.456 35.2618 126.772 34.5241 125.759 34.5241C124.746 34.5241 123.993 35.2618 123.842 36.2728Z" fill="black"/>
<path d="M122.188 35.7125C122.188 37.7481 120.737 39.0733 118.533 39.0733H116.918C116.754 39.0733 116.645 38.9504 116.645 38.8001V32.6385C116.645 32.4882 116.754 32.3652 116.918 32.3652H118.533C120.751 32.3652 122.188 33.6768 122.188 35.7125ZM117.165 32.8434V38.5952H118.533C120.395 38.5952 121.64 37.4475 121.64 35.7125C121.64 33.9774 120.409 32.8434 118.533 32.8434H117.165Z" fill="black"/>
<path d="M112.222 36.2865V36.4095C112.222 36.628 112.126 36.7373 111.907 36.7373H108.075C108.13 37.8713 108.965 38.691 110.101 38.691C110.675 38.691 111.223 38.4588 111.593 38.0626C111.661 37.9943 111.716 37.9669 111.784 37.9669C111.921 37.9669 112.003 38.0626 112.003 38.1992C112.003 38.2812 111.976 38.3358 111.88 38.4314C111.387 38.9233 110.785 39.1692 110.087 39.1692C108.636 39.1692 107.527 38.0489 107.527 36.6144C107.527 35.1799 108.622 34.0596 109.991 34.0596C111.278 34.0596 112.208 34.9886 112.208 36.2865H112.222ZM108.089 36.2728H111.702C111.702 35.2618 111.018 34.5241 110.005 34.5241C108.992 34.5241 108.239 35.2618 108.089 36.2728Z" fill="black"/>
<path d="M106.938 34.3738C106.938 34.5104 106.829 34.6197 106.678 34.6197C105.693 34.6197 104.954 35.3165 104.954 36.2592V38.937C104.954 39.0736 104.844 39.1965 104.694 39.1965C104.543 39.1965 104.434 39.0872 104.434 38.937V34.3328C104.434 34.1962 104.543 34.0732 104.694 34.0732C104.844 34.0732 104.954 34.1825 104.954 34.3328V35.0159C105.31 34.4694 105.912 34.1416 106.678 34.1416C106.829 34.1416 106.938 34.2372 106.938 34.3875V34.3738Z" fill="black"/>
<path d="M98.7695 37.2155V34.3192C98.7695 34.2503 98.7969 34.1843 98.8457 34.1356C98.8945 34.0869 98.9606 34.0596 99.0296 34.0596C99.0986 34.0596 99.1647 34.0869 99.2135 34.1356C99.2623 34.1843 99.2897 34.2503 99.2897 34.3192V37.2292C99.2897 38.0899 99.8645 38.691 100.713 38.691C101.562 38.691 102.123 38.0899 102.123 37.2292V34.3192C102.123 34.1825 102.232 34.0596 102.383 34.0596C102.534 34.0596 102.643 34.1689 102.643 34.3192V37.2155C102.643 38.3631 101.836 39.1692 100.713 39.1692C99.5908 39.1692 98.7832 38.3631 98.7832 37.2155H98.7695Z" fill="black"/>
<path d="M97.6873 38.8686C97.6873 38.9916 97.6188 39.0736 97.4683 39.1009C97.2766 39.1555 97.0713 39.1692 96.8523 39.1692C95.8805 39.1692 95.3467 38.6364 95.3467 37.6937V34.6197H94.7034C94.5665 34.6197 94.457 34.5241 94.457 34.3875C94.457 34.2508 94.5665 34.1552 94.7034 34.1552H95.3467V32.9529C95.3467 32.8027 95.4699 32.6934 95.6068 32.6934C95.7436 32.6934 95.8668 32.8163 95.8668 32.9529V34.1552H97.2356C97.3725 34.1552 97.482 34.2508 97.482 34.3875C97.482 34.5241 97.3725 34.6197 97.2356 34.6197H95.8668V37.6664C95.8668 38.3631 96.209 38.691 96.9345 38.691C97.1945 38.691 97.3451 38.6364 97.4546 38.6364C97.5915 38.6364 97.6873 38.7184 97.6873 38.855V38.8686Z" fill="black"/>
<path d="M89.4766 37.2155V34.3192C89.4766 34.2503 89.504 34.1843 89.5527 34.1356C89.6015 34.0869 89.6676 34.0596 89.7366 34.0596C89.8056 34.0596 89.8717 34.0869 89.9205 34.1356C89.9693 34.1843 89.9967 34.2503 89.9967 34.3192V37.2292C89.9967 38.0899 90.5716 38.691 91.4202 38.691C92.2688 38.691 92.83 38.0899 92.83 37.2292V34.3192C92.83 34.1825 92.9395 34.0596 93.09 34.0596C93.2406 34.0596 93.3501 34.1689 93.3501 34.3192V37.2155C93.3501 38.3631 92.5425 39.1692 91.4202 39.1692C90.2978 39.1692 89.4902 38.3631 89.4902 37.2155H89.4766Z" fill="black"/>
<path d="M84.5078 38.8411V32.6385C84.5078 32.4882 84.6173 32.3652 84.7816 32.3652H88.3951C88.5319 32.3652 88.6414 32.4609 88.6414 32.5975C88.6414 32.7341 88.5319 32.8434 88.3951 32.8434H85.0416V35.4392H87.7928C87.9297 35.4392 88.0392 35.5348 88.0392 35.6715C88.0392 35.8081 87.9297 35.9174 87.7928 35.9174H85.0416V38.8411C85.0416 39.005 84.9184 39.128 84.7816 39.128C84.631 39.128 84.5215 39.005 84.5215 38.8411H84.5078Z" fill="black"/>
<path d="M79.2383 30.207H79.6352V40.6859H79.2383V30.207Z" fill="black"/>
<path d="M73.8982 31.6004V38.9096C73.8982 39.0462 73.7887 39.1692 73.6381 39.1692C73.4876 39.1692 73.3781 39.0599 73.3781 38.9096V38.1036C73.0222 38.7457 72.2831 39.1692 71.3934 39.1692C70.0247 39.1692 68.957 38.0626 68.957 36.6144C68.957 35.1662 70.011 34.0596 71.3934 34.0596C72.2694 34.0596 73.0085 34.4831 73.3781 35.1116V31.6004C73.3781 31.4638 73.4876 31.3408 73.6381 31.3408C73.7887 31.3408 73.8982 31.4501 73.8982 31.6004ZM73.3918 36.6281C73.3918 35.3848 72.6253 34.5514 71.4618 34.5514C70.2984 34.5514 69.5045 35.4395 69.5045 36.6281C69.5045 37.8167 70.3531 38.7047 71.4618 38.7047C72.5705 38.7047 73.3918 37.8713 73.3918 36.6281Z" fill="black"/>
<path d="M67.8198 36.2865V36.4095C67.8198 36.628 67.724 36.7373 67.505 36.7373H63.6725C63.7273 37.8713 64.5622 38.691 65.6982 38.691C66.2731 38.691 66.8206 38.4588 67.1902 38.0626C67.2586 37.9943 67.3134 37.9669 67.3818 37.9669C67.5187 37.9669 67.6008 38.0626 67.6008 38.1992C67.6008 38.2812 67.5734 38.3358 67.4776 38.4314C66.9849 38.9233 66.3826 39.1692 65.6846 39.1692C64.2337 39.1692 63.125 38.0489 63.125 36.6144C63.125 35.1799 64.22 34.0596 65.5887 34.0596C66.8754 34.0596 67.8061 34.9886 67.8061 36.2865H67.8198ZM63.6862 36.2728H67.2997C67.2997 35.2618 66.6153 34.5241 65.6024 34.5241C64.5896 34.5241 63.8367 35.2618 63.6862 36.2728Z" fill="black"/>
<path d="M61.69 35.9723V38.9233C61.69 39.0599 61.5805 39.1829 61.4299 39.1829C61.2793 39.1829 61.1698 39.0736 61.1698 38.9233V36.0133C61.1698 35.1252 60.6223 34.5514 59.8011 34.5514C58.9798 34.5514 58.3365 35.1662 58.3365 36.0133V38.9233C58.3365 39.0599 58.227 39.1829 58.0765 39.1829C57.9259 39.1829 57.8164 39.0736 57.8164 38.9233V34.3192C57.8164 34.1825 57.9259 34.0596 58.0765 34.0596C58.227 34.0596 58.3365 34.1689 58.3365 34.3192V34.7973C58.6787 34.3465 59.2125 34.0596 59.8832 34.0596C60.9782 34.0596 61.69 34.7973 61.69 35.9723Z" fill="black"/>
<path d="M55.9412 34.3738V38.6364C55.9412 40.0846 55.0104 40.9999 53.5869 40.9999C52.7931 40.9999 52.0129 40.6993 51.4654 40.1938C51.4362 40.1681 51.4126 40.1366 51.3962 40.1013C51.3797 40.0661 51.3706 40.0278 51.3696 39.9889C51.3696 39.8523 51.4791 39.743 51.6159 39.743C51.6707 39.743 51.7254 39.7703 51.7802 39.8113C52.314 40.2758 52.9299 40.5217 53.5869 40.5217C54.7367 40.5217 55.4347 39.8113 55.4347 38.65V37.9942C55.0652 38.609 54.3124 39.0462 53.4364 39.0462C52.0676 39.0462 51 37.9533 51 36.5461C51 35.1389 52.0539 34.0459 53.4364 34.0459C54.3261 34.0459 55.0652 34.4694 55.4347 35.0979V34.3601C55.4347 34.2913 55.4621 34.2253 55.5109 34.1766C55.5597 34.1279 55.6258 34.1005 55.6948 34.1005C55.7638 34.1005 55.8299 34.1279 55.8787 34.1766C55.9275 34.2253 55.9549 34.2913 55.9549 34.3601L55.9412 34.3738ZM55.4347 36.5461C55.4347 35.3438 54.6546 34.5377 53.5048 34.5377C52.3551 34.5377 51.5338 35.3984 51.5338 36.5597C51.5338 37.721 52.3824 38.5681 53.5048 38.5681C54.6272 38.5681 55.4347 37.762 55.4347 36.5461Z" fill="black"/>
<path d="M49.6182 32.2702C49.6182 32.5161 49.4266 32.7074 49.1802 32.7074C48.9338 32.7074 48.7422 32.5161 48.7422 32.2702C48.7422 32.0243 48.9338 31.833 49.1802 31.833C49.4266 31.833 49.6182 32.0243 49.6182 32.2702ZM48.9201 38.9236V34.3195C48.9201 34.1829 49.0159 34.0599 49.1802 34.0599C49.3171 34.0599 49.4402 34.1692 49.4402 34.3195V38.9236C49.4402 39.0603 49.3307 39.1832 49.1802 39.1832C49.0433 39.1832 48.9338 39.0739 48.9338 38.9236H48.9201Z" fill="black"/>
<path d="M46.5234 38.9233V31.6141C46.5234 31.4774 46.6329 31.3545 46.7835 31.3545C46.9341 31.3545 47.0436 31.4638 47.0436 31.6141V38.9233C47.0436 39.0599 46.9477 39.1829 46.7835 39.1829C46.7145 39.1829 46.6484 39.1555 46.5996 39.1069C46.5508 39.0582 46.5234 38.9921 46.5234 38.9233Z" fill="black"/>
<path d="M45.1395 38.9366C45.1395 39.0596 45.0164 39.1689 44.8795 39.1689C44.7563 39.1689 44.6742 39.1143 44.6194 38.9913L43.9624 37.4748H40.3763L39.7467 38.9913C39.6919 39.1143 39.6098 39.1689 39.4866 39.1689C39.3498 39.1689 39.2266 39.0596 39.2266 38.9366C39.2266 38.882 39.2266 38.841 39.2676 38.759L41.923 32.4471C41.9777 32.3242 42.0599 32.2695 42.1831 32.2695C42.2926 32.2695 42.3884 32.3242 42.4294 32.4471L45.0711 38.759C45.1122 38.841 45.1259 38.8957 45.1259 38.9366H45.1395ZM40.5816 36.9966H43.7708L42.1831 33.0619L40.5816 36.9966Z" fill="black"/>
<path d="M36.1343 34.3192C36.1343 34.3192 36.1343 34.3738 36.1069 34.4285L33.7253 39.7703C33.342 40.6037 32.7945 40.9999 32.0554 40.9999C31.9185 40.9999 31.7543 40.9999 31.6311 40.9589C31.5079 40.9316 31.4258 40.836 31.4258 40.7267C31.4258 40.5901 31.5353 40.4944 31.6585 40.4944C31.7406 40.4944 31.8912 40.5354 32.0143 40.5354C32.5892 40.5354 32.9725 40.2485 33.2462 39.6474L33.5337 38.9916L31.5216 34.4558C31.5216 34.4558 31.4942 34.3738 31.4942 34.3328C31.4945 34.2714 31.5166 34.212 31.5566 34.1653C31.5966 34.1186 31.6519 34.0875 31.7127 34.0777C31.7734 34.0679 31.8357 34.0799 31.8885 34.1116C31.9412 34.1433 31.9809 34.1926 32.0007 34.2508L33.8348 38.3768L35.6415 34.2508C35.6826 34.1416 35.7784 34.0732 35.9016 34.0732C36.0385 34.0732 36.1616 34.1825 36.1616 34.3328L36.1343 34.3192Z" fill="black"/>
<path d="M30.9736 34.3738C30.9736 34.5104 30.8641 34.6197 30.7135 34.6197C29.728 34.6197 28.9889 35.3165 28.9889 36.2592V38.937C28.9889 39.0736 28.8794 39.1965 28.7288 39.1965C28.5783 39.1965 28.4688 39.0872 28.4688 38.937V34.3328C28.4688 34.1962 28.5783 34.0732 28.7288 34.0732C28.8794 34.0732 28.9889 34.1825 28.9889 34.3328V35.0159C29.3447 34.4694 29.947 34.1416 30.7135 34.1416C30.8641 34.1416 30.9736 34.2372 30.9736 34.3875V34.3738Z" fill="black"/>
<path d="M27.3201 38.8686C27.3201 38.9916 27.2516 39.0736 27.1011 39.1009C26.9095 39.1555 26.7041 39.1692 26.4851 39.1692C25.5133 39.1692 24.9795 38.6364 24.9795 37.6937V34.6197H24.3362C24.1993 34.6197 24.0898 34.5241 24.0898 34.3875C24.0898 34.2508 24.1993 34.1552 24.3362 34.1552H24.9795V32.9529C24.9795 32.8027 25.1027 32.6934 25.2396 32.6934C25.3765 32.6934 25.4996 32.8163 25.4996 32.9529V34.1552H26.8684C27.0053 34.1552 27.1148 34.2508 27.1148 34.3875C27.1148 34.5241 27.0053 34.6197 26.8684 34.6197H25.4996V37.6664C25.4996 38.3631 25.8418 38.691 26.5673 38.691C26.8273 38.691 26.9779 38.6364 27.0874 38.6364C27.2243 38.6364 27.3201 38.7184 27.3201 38.855V38.8686Z" fill="black"/>
<path d="M19.7364 38.2538C19.7364 38.2538 19.668 38.1445 19.668 38.0762C19.668 37.9396 19.7912 37.8167 19.928 37.8167C19.9965 37.8167 20.0649 37.844 20.1197 37.9123C20.5029 38.4041 20.9683 38.691 21.5705 38.691C22.1728 38.691 22.6655 38.4041 22.6655 37.8303C22.6655 37.2838 22.2138 37.0926 21.6526 36.8466L21.201 36.6554C20.544 36.3685 19.9965 36.0406 19.9965 35.3438C19.9965 34.5241 20.7356 34.0596 21.5568 34.0596C22.2138 34.0596 22.7203 34.3601 23.0488 34.7427C23.1035 34.7973 23.1446 34.8793 23.1446 34.9203C23.1446 35.0569 23.0488 35.1662 22.9256 35.1662C22.8571 35.1662 22.7887 35.1389 22.7066 35.0569C22.4055 34.729 22.0085 34.5377 21.5295 34.5377C21.0093 34.5377 20.5303 34.77 20.5303 35.3165C20.5303 35.7673 20.8862 35.9586 21.461 36.2045L21.9127 36.4095C22.6655 36.7373 23.1856 37.0926 23.1856 37.8167C23.1856 38.7184 22.4055 39.1829 21.5431 39.1829C20.7493 39.1829 20.1197 38.7867 19.7364 38.2538Z" fill="black"/>
<path d="M14.4688 37.2155V34.3192C14.4688 34.2503 14.4961 34.1843 14.5449 34.1356C14.5937 34.0869 14.6598 34.0596 14.7288 34.0596C14.7978 34.0596 14.8639 34.0869 14.9127 34.1356C14.9615 34.1843 14.9889 34.2503 14.9889 34.3192V37.2292C14.9889 38.0899 15.5637 38.691 16.4124 38.691C17.261 38.691 17.8222 38.0899 17.8222 37.2292V34.3192C17.8222 34.1825 17.9317 34.0596 18.0822 34.0596C18.2328 34.0596 18.3423 34.1689 18.3423 34.3192V37.2155C18.3423 38.3631 17.5347 39.1692 16.4124 39.1692C15.29 39.1692 14.4824 38.3631 14.4824 37.2155H14.4688Z" fill="black"/>
<path d="M12.6482 31.6004V38.9096C12.6482 39.0462 12.5387 39.1692 12.3881 39.1692C12.2376 39.1692 12.1281 39.0599 12.1281 38.9096V38.1036C11.7722 38.7457 11.0331 39.1692 10.1434 39.1692C8.77465 39.1692 7.70703 38.0626 7.70703 36.6144C7.70703 35.1662 8.76096 34.0596 10.1434 34.0596C11.0194 34.0596 11.7585 34.4831 12.1281 35.1116V31.6004C12.1281 31.4638 12.2376 31.3408 12.3881 31.3408C12.5387 31.3408 12.6482 31.4501 12.6482 31.6004ZM12.1418 36.6281C12.1418 35.3848 11.3616 34.5514 10.2118 34.5514C9.06209 34.5514 8.24084 35.4395 8.24084 36.6281C8.24084 37.8167 9.08946 38.7047 10.2118 38.7047C11.3342 38.7047 12.1418 37.8713 12.1418 36.6281Z" fill="black"/>
<path d="M6.26808 35.9723V38.9233C6.26808 39.0599 6.15858 39.1829 6.00802 39.1829C5.85746 39.1829 5.74796 39.0736 5.74796 38.9233V36.0133C5.74796 35.1252 5.20046 34.5514 4.37921 34.5514C3.55796 34.5514 2.91465 35.1662 2.91465 36.0133V38.9233C2.91465 39.0599 2.80515 39.1829 2.65459 39.1829C2.50403 39.1829 2.39453 39.0736 2.39453 38.9233V34.3192C2.39453 34.1825 2.50403 34.0596 2.65459 34.0596C2.80515 34.0596 2.91465 34.1689 2.91465 34.3192V34.7973C3.25684 34.3465 3.79065 34.0596 4.46134 34.0596C5.55633 34.0596 6.26808 34.7973 6.26808 35.9723Z" fill="black"/>
<path d="M0 38.8957V32.5428C0 32.3788 0.1095 32.2695 0.260062 32.2695C0.396936 32.2695 0.520123 32.3788 0.520123 32.5428V38.8957C0.520123 39.0596 0.396936 39.1689 0.260062 39.1689C0.1095 39.1689 0 39.0596 0 38.8957Z" fill="black"/>
<path d="M151.002 7.21387V26.4228H147.58V24.0456C145.842 25.6577 143.652 26.6277 141.243 26.7234C135.029 26.9829 132.059 22.3105 132.059 16.8457V7.21387H135.48V16.8457C135.48 20.3705 137 23.6767 141.188 23.5538C145.418 23.4308 147.58 20.0289 147.58 18.2119V7.21387H151.002Z" fill="#5B80EA"/>
<path d="M119.779 26.7231C114.318 26.846 109.883 22.3102 109.883 16.8454C109.883 11.3805 114.318 6.83106 119.779 6.92669C122.188 6.96768 124.392 8.03332 126.075 9.64545V0H129.497V26.4225H126.075V24.0453C124.337 25.6165 122.106 26.6684 119.779 26.7231ZM119.779 10.4788C116.275 10.4788 113.442 13.3206 113.442 16.8454C113.442 20.3702 116.275 23.2119 119.779 23.2119C123.283 23.2119 126.075 20.3702 126.075 16.8454C126.075 13.3206 123.242 10.4788 119.779 10.4788Z" fill="#5B80EA"/>
<path d="M108.05 18.5533C108.24 17.483 108.249 16.3886 108.077 15.3153C107.324 10.5882 103.232 6.98145 98.2906 6.98145C95.6613 6.98217 93.1398 8.02408 91.2793 9.87853C89.4189 11.733 88.3715 14.2484 88.3672 16.8728C88.3672 17.4466 88.4219 18.0068 88.5178 18.5533C89.3253 23.212 93.3905 26.7642 98.2906 26.7642C102.493 26.7642 106.092 24.1411 107.53 20.4523H103.506C102.92 21.2961 102.138 21.9864 101.228 22.4645C100.318 22.9426 99.3055 23.1943 98.2769 23.1984C96.8875 23.2026 95.5353 22.7499 94.4295 21.9103C93.3236 21.0707 92.5255 19.8909 92.1586 18.5533H108.05ZM92.1312 15.3017C92.446 14.0584 93.1441 12.9108 94.1433 12.0638C95.293 11.0801 96.7576 10.5336 98.2769 10.5336C99.7962 10.5336 101.261 11.0801 102.411 12.0638C103.399 12.9104 104.102 14.0413 104.423 15.3017H92.1312Z" fill="#5B80EA"/>
<path d="M66.4129 10.1374C64.3461 10.2603 63.1142 11.6675 60.2398 15.1787C58.9258 16.7498 57.1054 18.9494 55.1618 21.0807V26.4226H51.781V24.0454C51.6578 24.1683 48.9066 26.8051 45.1015 26.7232C41.0774 26.6412 38.0388 24.6875 37.9566 20.8758C37.8335 16.7635 40.9542 14.1267 46.3334 14.1267H51.7536C51.7536 11.0664 49.6457 10.4379 46.9356 10.4379H40.5025V7.21367H46.7577C52.3832 7.21367 54.8743 9.24932 55.1344 14.0037V14.6459L51.7947 18.4166V17.351H46.3334C43.2947 17.351 41.5975 18.5396 41.5564 20.4113C41.4743 22.324 42.8294 23.294 44.773 23.4716C47.0588 23.6902 49.6731 22.119 51.7947 19.9058C54.669 16.9821 57.3791 13.3753 57.5844 13.1157V7.21367H60.9653V9.63186C62.2792 8.27931 63.6754 7.04972 66.0844 6.9131C69.342 6.74915 71.5046 7.97874 72.6817 10.3013C74.2831 8.56622 76.4458 7.03606 78.7726 6.9131C83.8507 6.61253 86.3418 9.79581 86.3418 15.2743V26.4363H82.9199V15.4929C82.9199 12.2277 81.9481 10.11 79.1148 10.151C76.1583 10.151 73.6535 13.1157 73.6535 15.5749V26.4363H70.2727V15.6569C70.2727 12.5146 69.4241 9.97341 66.4265 10.1374H66.4129ZM61.0747 15.7388L60.9516 26.4226H57.5708V20.0151L61.0747 15.7252V15.7388Z" fill="black"/>
<path d="M36.999 18.5533C37.1892 17.483 37.1985 16.3886 37.0263 15.3153C36.2735 10.5882 32.181 6.98145 27.2398 6.98145C24.6106 6.98217 22.089 8.02408 20.2285 9.87853C18.3681 11.733 17.3208 14.2484 17.3164 16.8728C17.3164 17.4466 17.3712 18.0068 17.467 18.5533C18.2745 23.212 22.3397 26.7642 27.2398 26.7642C31.4419 26.7642 35.0417 24.1411 36.4788 20.4523H32.4547C31.8689 21.2961 31.0876 21.9864 30.1774 22.4645C29.2671 22.9426 28.2547 23.1943 27.2261 23.1984C25.8367 23.2026 24.4846 22.7499 23.3787 21.9103C22.2728 21.0707 21.4747 19.8909 21.1078 18.5533H36.999ZM21.0805 15.3017C21.3953 14.0584 22.0933 12.9108 23.0925 12.0638C24.2423 11.0801 25.7068 10.5336 27.2261 10.5336C28.7454 10.5336 30.21 11.0801 31.3597 12.0638C32.3486 12.9104 33.0513 14.0413 33.3718 15.3017H21.0805Z" fill="black"/>
<path d="M13.1129 21.5454C13.1129 17.3921 0.34248 19.9743 0.000293304 12.1732C-0.0818314 10.2195 1.01316 7.21387 5.70796 7.21387H15.6861V10.4381H6.84402C5.36578 10.4381 3.54534 10.6021 3.54534 12.1322C3.50428 15.903 16.4389 13.8673 16.6169 21.5044C16.6579 23.4581 15.6451 26.4228 10.9092 26.4228H0.301417V23.2395H9.77314C11.2514 23.2395 13.1129 23.0209 13.1129 21.5454Z" fill="black"/>
</g>
<defs>
<clipPath id="clip0_728_6377">
<rect width="151" height="41" fill="white"/>
</clipPath>
</defs>
</svg>
